<svg width="58" height="58" viewBox="0 0 58 58" fill="none" xmlns="http://www.w3.org/2000/svg">
<path d="M20.3333 3H5.88889C4.2934 3 3 4.2934 3 5.88889V20.3333C3 21.9288 4.2934 23.2222 5.88889 23.2222H20.3333C21.9288 23.2222 23.2222 21.9288 23.2222 20.3333V5.88889C23.2222 4.2934 21.9288 3 20.3333 3Z" stroke="black" stroke-width="5" stroke-linecap="round" stroke-linejoin="round"/>
<path d="M20.3333 34.7778H5.88889C4.2934 34.7778 3 36.0712 3 37.6667V52.1111C3 53.7066 4.2934 55 5.88889 55H20.3333C21.9288 55 23.2222 53.7066 23.2222 52.1111V37.6667C23.2222 36.0712 21.9288 34.7778 20.3333 34.7778Z" stroke="black" stroke-width="5" stroke-linecap="round" stroke-linejoin="round"/>
<path d="M52.1111 3H37.6667C36.0712 3 34.7778 4.2934 34.7778 5.88889V20.3333C34.7778 21.9288 36.0712 23.2222 37.6667 23.2222H52.1111C53.7066 23.2222 55 21.9288 55 20.3333V5.88889C55 4.2934 53.7066 3 52.1111 3Z" stroke="black" stroke-width="5" stroke-linecap="round" stroke-linejoin="round"/>
<path d="M52.1111 34.7778H37.6667C36.0712 34.7778 34.7778 36.0712 34.7778 37.6667V52.1111C34.7778 53.7066 36.0712 55 37.6667 55H52.1111C53.7066 55 55 53.7066 55 52.1111V37.6667C55 36.0712 53.7066 34.7778 52.1111 34.7778Z" stroke="black" stroke-width="5" stroke-linecap="round" stroke-linejoin="round"/>
</svg>
