<?xml version="1.0" encoding="UTF-8"?>
<svg id="Calque_2" data-name="Calque 2" xmlns="http://www.w3.org/2000/svg" viewBox="0 0 258.1 86.22">
  <defs>
    <style>
      .cls-1 {
        fill: #f08931;
      }

      .cls-2 {
        fill: #1d1d1b;
      }
    </style>
  </defs>
  <g id="Calque_1-2" data-name="Calque 1">
    <path class="cls-2" d="M138.98,27.7c-.87,0-1.56-.26-2.08-.77-.52-.52-.77-1.15-.77-1.91,0-.81,.26-1.48,.77-2,.52-.52,1.21-.77,2.08-.77h21.26c.87,0,1.56,.26,2.08,.77,.52,.52,.77,1.18,.77,2,0,.76-.26,1.4-.77,1.91-.52,.52-1.21,.77-2.08,.77h-21.26Zm8.23,37.48c-.81,0-1.52-.28-2.12-.85-.6-.57-.9-1.34-.9-2.32V20.69c0-3.8,.65-7.14,1.96-10.02,1.3-2.88,3.23-5.12,5.78-6.72,2.55-1.6,5.67-2.4,9.37-2.4,.92,0,1.68,.27,2.28,.82,.6,.54,.9,1.22,.9,2.04s-.3,1.49-.9,2.04c-.6,.54-1.36,.81-2.28,.81-2.44,0-4.47,.56-6.07,1.67-1.6,1.11-2.8,2.66-3.58,4.64-.79,1.98-1.18,4.25-1.18,6.8V62c0,.98-.29,1.75-.86,2.32s-1.37,.85-2.4,.85Z"/>
    <path class="cls-2" d="M189.55,63.71c-2.22,0-4.18-.6-5.86-1.79-1.68-1.19-3.01-2.85-3.99-4.96-.98-2.12-1.46-4.56-1.46-7.32V3.09c0-.92,.3-1.67,.89-2.24,.6-.57,1.35-.85,2.28-.85,.87,0,1.6,.28,2.2,.85,.6,.57,1.09,.95,1.09,1.87l-.2,46.91c0,2.33,.47,4.23,1.42,5.69,.95,1.46,2.16,2.2,3.62,2.2h16.5c.76,0,1.4,.28,1.91,.85,.51,.57,.77,1.32,.77,2.24s-.35,1.67-1.06,2.24c-.71,.57-.19,.85-1.27,.85h-16.86Z"/>
    <path class="cls-1" d="M206.31,38.22c-1.34,0-2.5-.49-3.48-1.46-.98-.97-1.46-2.16-1.46-3.57,0-1.52,.5-2.73,1.51-3.61,1.01-.88,2.18-1.33,3.52-1.33s2.42,.44,3.43,1.33c1.01,.88,1.51,2.09,1.51,3.61,0,1.4-.49,2.59-1.46,3.57-.98,.98-2.17,1.46-3.57,1.46Z"/>
    <path class="cls-1" d="M239.86,49.14c-1.69,0-3.16-.62-4.39-1.85-1.23-1.23-1.85-2.73-1.85-4.5,0-1.92,.63-3.44,1.9-4.56,1.27-1.11,2.75-1.67,4.44-1.67s3.06,.56,4.33,1.67c1.27,1.12,1.9,2.64,1.9,4.56,0,1.77-.62,3.27-1.85,4.5-1.23,1.23-2.73,1.85-4.5,1.85Z"/>
    <path class="cls-2" d="M206.41,63.71c-1.1,0-1.97-.32-2.61-.96-.64-.64-.96-1.51-.96-2.61v-13.79c0-1.1,.32-1.97,.96-2.61,.64-.64,1.51-.96,2.61-.96,1.04,0,1.88,.32,2.52,.96s.96,1.51,.96,2.61v13.79c0,1.1-.32,1.97-.96,2.61-.64,.64-1.48,.96-2.52,.96Z"/>
    <path class="cls-2" d="M224.05,40.43h1.71c1.24,0,2.24,1,2.24,2.24v40.45c0,1.71-1.39,3.09-3.09,3.09h0c-1.71,0-3.09-1.39-3.09-3.09V42.67c0-1.24,1-2.24,2.24-2.24Z"/>
    <path class="cls-2" d="M239.95,24.78c-10.03,0-18.14,8.12-18.14,18.14s8.12,18.14,18.14,18.14,18.14-8.12,18.14-18.14-8.12-18.14-18.14-18.14Zm0,29.9c-6.49,0-11.75-5.26-11.75-11.75s5.26-11.75,11.75-11.75,11.75,5.26,11.75,11.75-5.26,11.75-11.75,11.75Z"/>
    <path class="cls-1" d="M45.62,43.25c-1.34,0-2.5-.49-3.48-1.46-.98-.97-1.46-2.16-1.46-3.57,0-1.52,.5-2.73,1.51-3.61,1.01-.88,2.18-1.33,3.52-1.33s2.42,.44,3.43,1.33c1.01,.88,1.51,2.09,1.51,3.61,0,1.4-.49,2.59-1.46,3.57-.98,.98-2.17,1.46-3.57,1.46Z"/>
    <path class="cls-2" d="M46,64.59c-1.01,0-1.8-.32-2.39-.96-.59-.64-.88-1.51-.88-2.61v-9.64c0-1.1,.29-1.97,.88-2.61,.59-.64,1.38-.96,2.39-.96,.95,0,1.72,.32,2.31,.96s.88,1.51,.88,2.61v9.64c0,1.1-.29,1.97-.88,2.61-.59,.64-1.36,.96-2.31,.96Z"/>
    <path class="cls-2" d="M3.1,64.21c-.92,0-1.67-.28-2.24-.85-.57-.57-.86-1.32-.86-2.24V3.68c0-.92,.29-1.67,.86-2.24,.57-.57,1.32-.85,2.24-.85s1.67,.29,2.24,.85c.57,.57,.86,1.32,.86,2.24V61.11c0,.93-.29,1.67-.86,2.24-.57,.57-1.32,.85-2.24,.85Zm2.04-14.91l-3.83-4.15L29.17,19.97c.65-.6,1.33-.88,2.04-.85,.7,.03,1.36,.37,1.96,1.02,.6,.65,.88,1.34,.85,2.08-.03,.73-.37,1.37-1.02,1.91L5.13,49.3Zm28.11,14.5c-.71,.6-1.44,.85-2.2,.77-.76-.08-1.41-.47-1.96-1.18L10.92,41.07l4.4-3.91,18.33,22.57c.54,.65,.79,1.34,.73,2.08-.05,.73-.44,1.4-1.14,2Z"/>
    <path class="cls-2" d="M96.59,64.21c-.92,0-1.67-.28-2.24-.85-.57-.57-.86-1.32-.86-2.24V3.68c0-.92,.29-1.67,.86-2.24,.57-.57,1.32-.85,2.24-.85s1.67,.29,2.24,.85c.57,.57,.86,1.32,.86,2.24V61.11c0,.93-.29,1.67-.86,2.24-.57,.57-1.32,.85-2.24,.85Zm2.04-14.91l-3.83-4.15,27.86-25.18c.65-.6,1.33-.88,2.04-.85,.7,.03,1.36,.37,1.96,1.02,.6,.65,.88,1.34,.85,2.08-.03,.73-.37,1.37-1.02,1.91l-27.86,25.18Zm28.11,14.5c-.71,.6-1.44,.85-2.2,.77-.76-.08-1.41-.47-1.96-1.18l-18.17-22.32,4.4-3.91,18.33,22.57c.54,.65,.79,1.34,.73,2.08-.05,.73-.44,1.4-1.14,2Z"/>
    <path class="cls-2" d="M84.79,55.41c-.61-.35-1.26-.46-1.9-.37-.51,.07-1.02,.28-1.46,.6-1.4,1-3.05,1.68-4.86,1.93-6.47,.91-12.43-3.97-12.6-10.71-.14-4.89,3.11-9.42,7.81-10.83,2.49-.75,4.97-.59,7.14,.23,1.41,.53,2.99,.02,3.74-1.29h0c.9-1.57,.24-3.62-1.44-4.28-3.3-1.29-7.04-1.57-10.81-.53-7.47,2.06-12.69,9.14-12.46,16.89,.32,10.36,9.49,17.88,19.47,16.47,2.79-.39,5.33-1.44,7.49-2.96,2.01-1.43,2.05-3.94-.1-5.16Z"/>
  </g>
</svg>