<svg width="20" height="25" viewBox="0 0 20 25" fill="none" xmlns="http://www.w3.org/2000/svg">
<path d="M9.72222 11.1111C10.821 11.1111 11.8951 10.7853 12.8087 10.1748C13.7223 9.56438 14.4344 8.69672 14.8549 7.68158C15.2754 6.66643 15.3854 5.54939 15.171 4.47172C14.9567 3.39405 14.4275 2.40414 13.6506 1.62719C12.8736 0.850228 11.8837 0.321113 10.8061 0.106751C9.72838 -0.107611 8.61135 0.00240712 7.5962 0.422894C6.58106 0.843381 5.7134 1.55545 5.10295 2.46906C4.49249 3.38266 4.16667 4.45677 4.16667 5.55556C4.16667 7.02898 4.75198 8.44206 5.79385 9.48393C6.83572 10.5258 8.2488 11.1111 9.72222 11.1111ZM9.72222 2.77778C10.2716 2.77778 10.8087 2.94069 11.2655 3.24592C11.7223 3.55115 12.0783 3.98497 12.2886 4.49255C12.4988 5.00012 12.5538 5.55864 12.4466 6.09747C12.3394 6.63631 12.0749 7.13126 11.6864 7.51974C11.2979 7.90822 10.803 8.17278 10.2641 8.27996C9.7253 8.38714 9.16678 8.33213 8.65921 8.12189C8.15164 7.91165 7.71781 7.55561 7.41258 7.09881C7.10736 6.642 6.94444 6.10495 6.94444 5.55556C6.94444 4.81884 7.2371 4.11231 7.75804 3.59137C8.27897 3.07044 8.98551 2.77778 9.72222 2.77778Z" fill="#181818"/>
<path d="M9.72222 13.8889C7.14373 13.8889 4.67084 14.9132 2.84757 16.7365C1.0243 18.5597 0 21.0326 0 23.6111C0 23.9795 0.146329 24.3327 0.406796 24.5932C0.667263 24.8537 1.02053 25 1.38889 25C1.75724 25 2.11051 24.8537 2.37098 24.5932C2.63145 24.3327 2.77778 23.9795 2.77778 23.6111C2.77778 21.7693 3.50942 20.003 4.81176 18.7006C6.11409 17.3983 7.88044 16.6667 9.72222 16.6667C11.564 16.6667 13.3303 17.3983 14.6327 18.7006C15.935 20.003 16.6667 21.7693 16.6667 23.6111C16.6667 23.9795 16.813 24.3327 17.0735 24.5932C17.3339 24.8537 17.6872 25 18.0556 25C18.4239 25 18.7772 24.8537 19.0376 24.5932C19.2981 24.3327 19.4444 23.9795 19.4444 23.6111C19.4444 21.0326 18.4201 18.5597 16.5969 16.7365C14.7736 14.9132 12.3007 13.8889 9.72222 13.8889Z" fill="#181818"/>
</svg>
